<svg width="36" height="36" viewBox="0 0 36 36" fill="none" xmlns="http://www.w3.org/2000/svg">
<rect x="0.5" y="0.5" width="35" height="35" rx="17.5" fill="white"/>
<rect x="0.5" y="0.5" width="35" height="35" rx="17.5" stroke="#EDEDED"/>
<path d="M15.2366 19.1183C15.4051 18.7818 15.5 18.402 15.5 18C15.5 17.598 15.4051 17.2182 15.2366 16.8817M15.2366 19.1183C14.8261 19.9376 13.9787 20.5 13 20.5C11.6193 20.5 10.5 19.3807 10.5 18C10.5 16.6193 11.6193 15.5 13 15.5C13.9787 15.5 14.8261 16.0624 15.2366 16.8817M15.2366 19.1183L20.7634 21.8817M15.2366 16.8817L20.7634 14.1183M20.7634 14.1183C21.1739 14.9376 22.0213 15.5 23 15.5C24.3807 15.5 25.5 14.3807 25.5 13C25.5 11.6193 24.3807 10.5 23 10.5C21.6193 10.5 20.5 11.6193 20.5 13C20.5 13.402 20.5949 13.7818 20.7634 14.1183ZM20.7634 21.8817C20.5949 22.2182 20.5 22.598 20.5 23C20.5 24.3807 21.6193 25.5 23 25.5C24.3807 25.5 25.5 24.3807 25.5 23C25.5 21.6193 24.3807 20.5 23 20.5C22.0213 20.5 21.1739 21.0624 20.7634 21.8817Z" stroke="#101010" stroke-width="2" stroke-linecap="round" stroke-linejoin="round"/>
</svg>
